<svg fill="currentcolor" height="60px" width="120px" viewBox="0 0 123 28" fill="none"
    xmlns="http://www.w3.org/2000/svg">
    <path fill-rule="evenodd" clip-rule="evenodd"
        d="M0 14V28H2.5C4.91 28 5 27.767 5 21.5V15H14H23V21.5C23 27.767 23.09 28 25.5 28H28V14V0H25.5C23.167 0 23 0.333 23 5V10H14H5V5C5 0.333 4.833 0 2.5 0H0V14ZM32 14V28H34.5C36.913 28 37 27.77 37 21.443V14.885L41.25 15.193C45.351 15.489 45.616 15.718 48.805 21.75C51.721 27.264 52.459 28 55.07 28H58.029L54.971 21.942L51.913 15.884L54.956 13.041C58.546 9.688 58.856 6.358 55.927 2.635C53.914 0.0760002 53.541 0 42.927 0H32V14ZM64.073 2.635C62.328 4.853 62 6.68 62 14.18C62 22.308 62.216 23.307 64.455 25.545C66.777 27.868 67.53 28 78.455 28H90V25.533C90 23.073 89.967 23.065 78.75 22.783L67.5 22.5L67.19 18.75L66.879 15H75.94C84.937 15 85 14.983 85 12.5C85 10.017 84.938 10 75.93 10C67.097 10 66.869 9.941 67.18 7.75C67.487 5.589 67.943 5.489 78.75 5.217C89.967 4.935 90 4.927 90 2.467V0H78.073C66.378 0 66.105 0.0510001 64.073 2.635ZM94 14V28H96.5C98.971 28 99 27.9 99 19.5C99 9.87 99.522 9.39 104.95 14.03C107.85 16.51 108.669 16.782 110.097 15.739C111.031 15.058 113.192 13.457 114.898 12.182L118 9.864V18.932C118 27.938 118.017 28 120.5 28H123V14C123 6.3 122.765 0 122.479 0C122.192 0 119.094 2.25 115.595 5C112.095 7.75 108.945 10 108.595 10C108.244 10 105.094 7.75 101.595 5C98.095 2.25 94.955 0 94.616 0C94.277 0 94 6.3 94 14ZM52.527 6.044C54.042 8.494 50.75 10 43.878 10C37.208 10 37 9.924 37 7.5C37 5.057 37.171 5 44.441 5C48.534 5 52.172 5.47 52.527 6.044Z" />
</svg>